<?xml version="1.0" encoding="UTF-8"?>
<svg version="1.1" xmlns="http://www.w3.org/2000/svg" width="512" height="512">
<path d="M0 0 C37.62 0 75.24 0 114 0 C114 104.28 114 208.56 114 316 C76.38 316 38.76 316 0 316 C0 211.72 0 107.44 0 0 Z " fill="#000000" transform="translate(398,165)"/>
<path d="M0 0 C37.95 0 75.9 0 115 0 C115 69.63 115 139.26 115 211 C77.05 211 39.1 211 0 211 C0 141.37 0 71.74 0 0 Z " fill="#000000" transform="translate(240,270)"/>
<path d="M0 0 C31.35 0 62.7 0 95 0 C95 31.35 95 62.7 95 95 C90.26996268 90.9456823 85.77699896 86.91530449 81.41015625 82.5078125 C80.82076767 81.91700897 80.23137909 81.32620544 79.62413025 80.71749878 C77.76786273 78.85569596 75.91512915 76.99042255 74.0625 75.125 C72.79385328 73.85132989 71.5249751 72.57789029 70.25585938 71.3046875 C67.16789446 68.20577957 64.08309071 65.10375699 61 62 C60.30293945 62.59856812 60.30293945 62.59856812 59.59179688 63.20922852 C58.97369141 63.73959717 58.35558594 64.26996582 57.71875 64.81640625 C56.80512695 65.60059937 56.80512695 65.60059937 55.87304688 66.40063477 C54.63406115 67.45858517 53.39061946 68.5113414 52.14257812 69.55859375 C46.64619782 74.17267757 41.65092394 79.2869301 36.63085938 84.40600586 C33.52617722 87.55371753 30.38193388 90.58271173 27.03125 93.46875 C22.8076119 97.11066491 18.90341837 101.02034299 15 105 C10.48024688 109.60802955 5.89067773 114.01017797 1 118.22265625 C-2.48971278 121.32386585 -5.7321662 124.66834132 -9 128 C-13.52978713 132.61825953 -18.12959484 137.0319728 -23.03125 141.25390625 C-26.33738101 144.18612958 -29.40917665 147.34410669 -32.5 150.5 C-36.21590024 154.29412972 -39.94312464 158.00136566 -43.96875 161.46875 C-48.1923881 165.11066491 -52.09658163 169.02034299 -56 173 C-60.52377452 177.61212949 -65.1177082 182.01676252 -70.01367188 186.23193359 C-74.11761545 189.88492762 -77.88730762 193.88846146 -81.70703125 197.83398438 C-82.33480469 198.47271484 -82.96257812 199.11144531 -83.609375 199.76953125 C-84.16592773 200.34292236 -84.72248047 200.91631348 -85.29589844 201.50708008 C-87.09166059 203.0803015 -88.82752775 204.030337 -91 205 C-92.69087177 203.33664694 -94.37764845 201.66943461 -96.0625 200 C-96.76149414 199.31357422 -96.76149414 199.31357422 -97.47460938 198.61328125 C-100.20835651 195.89813103 -102.79702399 193.1100539 -105.30859375 190.1875 C-109.31465681 185.5607638 -113.63806243 181.2887507 -118 177 C-126.56563834 168.57808043 -126.56563834 168.57808043 -130.46875 164.03125 C-134.56202757 159.26833486 -139.02646937 154.90285874 -143.5 150.5 C-148.71762713 145.36479984 -153.81402335 140.23363587 -158.50976562 134.61132812 C-160.10365248 132.76173778 -160.10365248 132.76173778 -163 131 C-169.2709114 137.24763792 -175.53904107 143.49805 -181.80373478 149.75192261 C-184.7134424 152.65643403 -187.62406332 155.56001723 -190.53686523 158.46142578 C-193.35312442 161.26673929 -196.16686175 164.0745604 -198.97894096 166.88406372 C-200.04683278 167.95012219 -201.11559739 169.01530718 -202.18528938 170.07955933 C-209.00439087 176.83692496 -209.00439087 176.83692496 -215.44702148 183.94921875 C-219.86110548 189.1015512 -224.71491885 193.82583225 -229.5267334 198.60189819 C-231.287525 200.34974922 -233.04501864 202.10085972 -234.80175781 203.8527832 C-239.1625859 208.2003495 -243.52888113 212.54241148 -247.89501953 216.88464355 C-251.59587072 220.5656568 -255.29459256 224.24878557 -258.99060059 227.93466187 C-260.70944044 229.6470917 -262.43129812 231.35644512 -264.15332031 233.06567383 C-268.98260395 237.87258819 -273.69183202 242.71282496 -278.12072754 247.89587402 C-282.04439321 252.2890033 -286.28434807 256.39080686 -290.46379852 260.53896332 C-292.20668019 262.26892213 -293.94627882 264.00212519 -295.68511963 265.73614502 C-299.37058766 269.41027308 -303.06000449 273.08041974 -306.75 276.75 C-311.04326674 281.01961238 -315.33487045 285.29086981 -319.62229156 289.56635284 C-321.33247617 291.27007777 -323.04565291 292.97075396 -324.75897217 294.67132568 C-325.80788705 295.7166079 -326.85666171 296.76203085 -327.90527344 297.80761719 C-328.81903748 298.71614441 -329.73280151 299.62467163 -330.67425537 300.56072998 C-332.64125517 302.62374394 -334.36006961 304.67458395 -336 307 C-341.44713342 304.70821345 -345.208343 300.20138563 -349.32885742 296.09667969 C-350.81315947 294.62434584 -352.31510259 293.1716937 -353.81835938 291.71875 C-355.21731445 290.33042969 -355.21731445 290.33042969 -356.64453125 288.9140625 C-357.50409424 288.0679541 -358.36365723 287.2218457 -359.24926758 286.35009766 C-361 284 -361 284 -360.82185364 282.08584595 C-359.8170837 279.53576257 -358.55329071 278.19878145 -356.60107422 276.27636719 C-355.88297577 275.56172302 -355.16487732 274.84707886 -354.42501831 274.11077881 C-353.25170456 272.96539642 -353.25170456 272.96539642 -352.0546875 271.796875 C-351.2514505 271.00025452 -350.4482135 270.20363403 -349.62063599 269.38287354 C-347.04574064 266.83140476 -344.46094485 264.29026528 -341.875 261.75 C-339.31216308 259.22238279 -336.75151892 256.69260161 -334.19363403 254.15997314 C-332.60189838 252.58502097 -331.00707879 251.01317726 -329.40866089 249.44500732 C-326.05210609 246.13289593 -322.78263128 242.81006111 -319.71923828 239.22363281 C-315.24046975 234.02007703 -310.34262266 229.23128176 -305.4732666 224.39810181 C-303.712475 222.65025078 -301.95498136 220.89914028 -300.19824219 219.1472168 C-295.8374141 214.7996505 -291.47111887 210.45758852 -287.10498047 206.11535645 C-283.40412928 202.4343432 -279.70540744 198.75121443 -276.00939941 195.06533813 C-274.29055956 193.3529083 -272.56870188 191.64355488 -270.84667969 189.93432617 C-264.49842427 183.63240576 -264.49842427 183.63240576 -258.5 177 C-254.10838585 171.86075003 -249.26759272 167.15680925 -244.4732666 162.39810181 C-242.712475 160.65025078 -240.95498136 158.89914028 -239.19824219 157.1472168 C-234.8374141 152.7996505 -230.47111887 148.45758852 -226.10498047 144.11535645 C-222.40412928 140.4343432 -218.70540744 136.75121443 -215.00939941 133.06533813 C-213.29055956 131.3529083 -211.56870188 129.64355488 -209.84667969 127.93432617 C-204.92351089 123.03397138 -200.10482459 118.10312052 -195.59054565 112.81762695 C-192.72441083 109.54229569 -189.62380042 106.50131175 -186.53515625 103.4375 C-185.51789711 102.42236328 -185.51789711 102.42236328 -184.48008728 101.38671875 C-182.34325695 99.25542325 -180.20295177 97.12765782 -178.0625 95 C-176.60067877 93.54320221 -175.13908813 92.08617299 -173.67773438 90.62890625 C-170.121146 87.08326027 -166.56143984 83.54077261 -163 80 C-161.89171832 80.94251204 -160.78450575 81.8862813 -159.67773438 82.83056641 C-159.06103882 83.3559903 -158.44434326 83.88141418 -157.80895996 84.42276001 C-155.26728112 86.63886075 -152.88050043 88.9874981 -150.5 91.375 C-149.6234375 92.24898438 -148.746875 93.12296875 -147.84375 94.0234375 C-145.72242076 96.19712677 -143.72872618 98.45389497 -141.75 100.7578125 C-137.5690881 105.57817139 -133.04556341 110.02624644 -128.5 114.5 C-123.40416941 119.51532774 -118.45376858 124.55189058 -113.79589844 129.97705078 C-110.32946832 133.88173267 -106.58564053 137.51685808 -102.875 141.1875 C-102.08996094 141.96802734 -101.30492187 142.74855469 -100.49609375 143.55273438 C-98.99418088 145.04578267 -97.49130945 146.53786757 -95.98730469 148.02880859 C-93.6513824 150.34579097 -91.32413296 152.67120011 -89 155 C-88.5875 154.57589844 -88.175 154.15179688 -87.75 153.71484375 C-87.1725 153.12832031 -86.595 152.54179687 -86 151.9375 C-85.443125 151.36902344 -84.88625 150.80054688 -84.3125 150.21484375 C-82.33715936 148.32292121 -80.32139743 146.53800369 -78.25 144.75390625 C-73.96315994 141.02723314 -69.97580112 137.05345349 -66 133 C-61.48024688 128.39197045 -56.89067773 123.98982203 -52 119.77734375 C-48.51028722 116.67613415 -45.2678338 113.33165868 -42 110 C-37.47021287 105.38174047 -32.87040516 100.9680272 -27.96875 96.74609375 C-24.66261899 93.81387042 -21.59082335 90.65589331 -18.5 87.5 C-14.78409976 83.70587028 -11.05687536 79.99863434 -7.03125 76.53125 C-2.8076119 72.88933509 1.09658163 68.97965701 5 65 C9.53885899 60.37249142 14.14685631 55.94484166 19.05859375 51.71435547 C22.17347838 48.96376192 25.08489033 46.021778 28 43.0625 C28.58394531 42.47404297 29.16789062 41.88558594 29.76953125 41.27929688 C31.18204805 39.85520207 32.5913781 38.4279475 34 37 C32.65522588 34.00102632 31.17023164 31.92818053 28.83544922 29.62426758 C28.19493622 28.98713333 27.55442322 28.34999908 26.89450073 27.69355774 C26.20486237 27.017379 25.515224 26.34120026 24.8046875 25.64453125 C23.74352219 24.59116829 23.74352219 24.59116829 22.66091919 23.51652527 C20.40364239 21.27704866 18.13978466 19.04438163 15.875 16.8125 C13.60396841 14.56903529 11.33439003 12.32414815 9.06765747 10.07633972 C7.65702169 8.67801683 6.24372284 7.28237468 4.8276062 5.88960266 C4.19339752 5.2619249 3.55918884 4.63424713 2.90576172 3.98754883 C2.06209549 3.15626213 2.06209549 3.15626213 1.2013855 2.30818176 C0 1 0 1 0 0 Z " fill="#000000" transform="translate(361,31)"/>
<path d="M0 0 C37.62 0 75.24 0 114 0 C114 52.8 114 105.6 114 160 C76.38 160 38.76 160 0 160 C0 107.2 0 54.4 0 0 Z " fill="#000000" transform="translate(83,321)"/>
</svg>
