<?xml version="1.0" encoding="UTF-8"?>
<svg version="1.1" xmlns="http://www.w3.org/2000/svg" width="512" height="449">
<path d="M0 0 C37.62 0 75.24 0 114 0 C114 103.62 114 207.24 114 314 C76.38 314 38.76 314 0 314 C0 210.38 0 106.76 0 0 Z " fill="#FEFEFE" transform="translate(398,135)"/>
<path d="M0 0 C31.35 0 62.7 0 95 0 C95 31.35 95 62.7 95 95 C89.79459831 91.09594873 85.22980348 87.51658607 80.75 82.9453125 C80.20641846 82.39890106 79.66283691 81.85248962 79.1027832 81.28952026 C77.39702633 79.5727226 75.69842464 77.84904847 74 76.125 C72.83250121 74.94745054 71.66453607 73.77036324 70.49609375 72.59375 C67.65865728 69.73446733 64.82760706 66.8690022 62 64 C58.4001119 65.26506692 55.96716475 66.63932772 53.21484375 69.2734375 C52.52511475 69.92771729 51.83538574 70.58199707 51.12475586 71.25610352 C50.40296143 71.95533936 49.68116699 72.6545752 48.9375 73.375 C48.18670166 74.09163818 47.43590332 74.80827637 46.66235352 75.54663086 C41.68880001 80.31209034 36.7995082 85.15771675 31.95996094 90.05883789 C29.45175944 92.58913999 26.90698324 95.0113988 24.1875 97.3125 C19.3891342 101.38658417 15.03325823 105.91648002 10.62963867 110.4074707 C7.52522226 113.55453133 4.38144493 116.58313288 1.03125 119.46875 C-3.1923881 123.11066491 -7.09658163 127.02034299 -11 131 C-15.51975312 135.60802955 -20.10932227 140.01017797 -25 144.22265625 C-28.48971278 147.32386585 -31.7321662 150.66834132 -35 154 C-39.52978713 158.61825953 -44.12959484 163.0319728 -49.03125 167.25390625 C-52.33755474 170.18628367 -55.40718953 173.34583385 -58.5 176.5 C-62.836129 180.88290264 -67.167197 185.15474695 -71.90234375 189.109375 C-73.74689858 190.7718788 -75.4661106 192.4817684 -77.19140625 194.265625 C-77.76681152 194.85778809 -78.3422168 195.44995117 -78.93505859 196.06005859 C-80.08115119 197.24702604 -81.21862189 198.44239516 -82.34619141 199.64697266 C-84.60806845 201.98601395 -86.56728614 203.77438533 -89.46484375 205.28515625 C-93.78249847 204.79950325 -96.01978795 201.63758195 -98.875 198.5625 C-99.46152344 197.95728516 -100.04804688 197.35207031 -100.65234375 196.72851562 C-103.66136748 193.59714698 -106.54990576 190.38075068 -109.3828125 187.08984375 C-113.36695932 182.50033383 -117.66831652 178.25900422 -122 174 C-126.93789131 169.14495922 -131.70855461 164.25271656 -136.22216797 159.00048828 C-139.49887576 155.31340456 -143.04480808 151.89265517 -146.5625 148.4375 C-151.62305055 143.46643752 -156.46182083 138.45585205 -161 133 C-165.09718698 133.53032906 -166.98718702 135.61836291 -169.84106445 138.48461914 C-170.30832947 138.94983978 -170.77559448 139.41506042 -171.25701904 139.89437866 C-172.79979573 141.43414833 -174.33155683 142.98439779 -175.86328125 144.53515625 C-176.93880208 145.61373768 -178.01491728 146.69172671 -179.09159851 147.76914978 C-181.34976677 150.03192221 -183.60293807 152.29951361 -185.85229492 154.57104492 C-188.71673686 157.46359936 -191.58962321 160.34756841 -194.465909 163.2283411 C-197.22651748 165.9941461 -199.98244595 168.76459679 -202.73828125 171.53515625 C-203.25614008 172.0548958 -203.77399891 172.57463535 -204.30755043 173.11012459 C-211.05572697 179.87046067 -211.05572697 179.87046067 -217.4519043 186.96069336 C-221.8113843 192.04003921 -226.5938331 196.70497102 -231.34153748 201.41670227 C-233.06872676 203.13094586 -234.7926132 204.84845302 -236.51574707 206.56677246 C-240.79309807 210.83086477 -245.07591759 215.08945061 -249.35858154 219.34820557 C-252.98897448 222.95875702 -256.61723537 226.57142642 -260.24278259 230.18684387 C-261.9283829 231.86603635 -263.61700141 233.54215076 -265.30578613 235.21813965 C-270.09073233 239.98049069 -274.75060311 244.78087243 -279.13989258 249.91503906 C-282.93933118 254.17376142 -287.04324144 258.14997172 -291.09340668 262.16857147 C-292.7690835 263.83131562 -294.44146785 265.49731185 -296.11309814 267.16412354 C-299.65590446 270.69559505 -303.20266195 274.22308139 -306.75 277.75 C-310.87805736 281.85439768 -315.00444719 285.96044417 -319.12665558 290.07071686 C-320.77036198 291.70796613 -322.4170604 293.34216438 -324.06390381 294.97625732 C-325.07237277 295.98109352 -326.08070146 296.98607051 -327.08886719 297.99121094 C-327.96710144 298.86420837 -328.84533569 299.73720581 -329.75018311 300.63665771 C-331.68822579 302.67249371 -333.37948899 304.70863541 -335 307 C-340.27781952 306.04144635 -343.15835008 302.52951586 -347 299 C-348.12336745 298.02415912 -349.24848966 297.05033604 -350.375 296.078125 C-351.56305198 295.03187646 -352.75055074 293.98499938 -353.9375 292.9375 C-354.51749756 292.44338623 -355.09749512 291.94927246 -355.69506836 291.44018555 C-358.20089057 289.19249613 -359.91000898 287.19627121 -361.31640625 284.12890625 C-360.57297391 276.77718642 -351.4335542 270.30742006 -346.34375 265.28125 C-345.2848053 264.22798523 -345.2848053 264.22798523 -344.20446777 263.15344238 C-341.22102625 260.18616234 -338.2315929 257.22494637 -335.24267578 254.26318359 C-333.04509421 252.08381535 -330.85062062 249.90135053 -328.65625 247.71875 C-327.99250366 247.063302 -327.32875732 246.407854 -326.64489746 245.73254395 C-323.5707715 242.6743451 -320.60376071 239.58479815 -317.78710938 236.28710938 C-313.27960352 231.06757618 -308.36462391 226.25311956 -303.4732666 221.39810181 C-301.712475 219.65025078 -299.95498136 217.89914028 -298.19824219 216.1472168 C-293.8374141 211.7996505 -289.47111887 207.45758852 -285.10498047 203.11535645 C-281.40412928 199.4343432 -277.70540744 195.75121443 -274.00939941 192.06533813 C-272.29055956 190.3529083 -270.56870188 188.64355488 -268.84667969 186.93432617 C-262.49842427 180.63240576 -262.49842427 180.63240576 -256.5 174 C-252.10838585 168.86075003 -247.26759272 164.15680925 -242.4732666 159.39810181 C-240.712475 157.65025078 -238.95498136 155.89914028 -237.19824219 154.1472168 C-232.8374141 149.7996505 -228.47111887 145.45758852 -224.10498047 141.11535645 C-220.40412928 137.4343432 -216.70540744 133.75121443 -213.00939941 130.06533813 C-211.29055956 128.3529083 -209.56870188 126.64355488 -207.84667969 124.93432617 C-202.91033219 120.0208515 -198.07651154 115.07720428 -193.55026245 109.77734375 C-190.9044415 106.7439649 -188.04916082 103.92591244 -185.19140625 101.09375 C-184.57982162 100.48358032 -183.968237 99.87341064 -183.33811951 99.24475098 C-181.41528198 97.32743835 -179.48896906 95.41366298 -177.5625 93.5 C-176.24520941 92.18773415 -174.92815014 90.87523605 -173.61132812 89.5625 C-170.4102139 86.37231494 -167.20598135 83.18529349 -164 80 C-153.62588701 85.02828956 -145.16005874 95.13566916 -137.72265625 103.78515625 C-133.70353723 108.41839096 -129.3715713 112.70177721 -125 117 C-116.43431005 125.42197032 -116.43431005 125.42197032 -112.55859375 129.9375 C-108.31376026 134.87694261 -103.68815647 139.42007246 -99.0625 144 C-97.75055664 145.30517578 -97.75055664 145.30517578 -96.41210938 146.63671875 C-94.27702551 148.76013549 -92.13962795 150.88116378 -90 153 C-87.02183282 151.57567584 -85.02068318 150.22096735 -82.75 147.8125 C-80.41914502 145.40819371 -78.06189905 143.15533681 -75.5 141 C-70.6136829 136.80082124 -66.13855 132.19093501 -61.63085938 127.59375 C-58.5260223 124.44629109 -55.38188423 121.4172455 -52.03125 118.53125 C-47.8076119 114.88933509 -43.90341837 110.97965701 -40 107 C-35.48024688 102.39197045 -30.89067773 97.98982203 -26 93.77734375 C-22.51028722 90.67613415 -19.2678338 87.33165868 -16 84 C-11.47021287 79.38174047 -6.87040516 74.9680272 -1.96875 70.74609375 C1.33755319 67.81371771 4.40720629 64.65418111 7.5 61.5 C15.32989081 53.58527413 15.32989081 53.58527413 19.375 50.125 C22.32587789 47.59753726 25.22713917 45.03233664 28.0625 42.375 C29.22458984 41.30378906 29.22458984 41.30378906 30.41015625 40.2109375 C32.20686297 38.15770046 32.20686297 38.15770046 32.02929688 35.81176758 C30.45111554 31.50059242 27.39114856 28.9400231 24.12109375 25.80078125 C23.4344313 25.12452194 22.74776886 24.44826263 22.04029846 23.75151062 C19.84864815 21.59545537 17.64408498 19.4532598 15.4375 17.3125 C13.2291501 15.15931687 11.02375306 13.00331004 8.82398987 10.84135437 C7.45500598 9.49696005 6.08071321 8.15794724 4.70079041 6.82478333 C3.77466698 5.91825264 3.77466698 5.91825264 2.82983398 4.9934082 C2.00829079 4.19662407 2.00829079 4.19662407 1.17015076 3.38374329 C0 2 0 2 0 0 Z " fill="#FEFEFE" transform="translate(361,1)"/>
<path d="M0 0 C37.95 0 75.9 0 115 0 C115 68.97 115 137.94 115 209 C77.05 209 39.1 209 0 209 C0 140.03 0 71.06 0 0 Z " fill="#FEFEFE" transform="translate(240,240)"/>
<path d="M0 0 C37.62 0 75.24 0 114 0 C114 52.14 114 104.28 114 158 C76.38 158 38.76 158 0 158 C0 105.86 0 53.72 0 0 Z " fill="#FEFEFE" transform="translate(83,291)"/>
</svg>
